<svg width="1183" height="774" viewBox="0 0 1183 774" fill="none" xmlns="http://www.w3.org/2000/svg">
<path d="M126.184 0V774" stroke="#878787" stroke-opacity="0.11"/>
<path d="M260.256 0V774" stroke="#878787" stroke-opacity="0.11"/>
<path d="M394.331 0V774" stroke="#878787" stroke-opacity="0.11"/>
<path d="M528.403 0V774" stroke="#878787" stroke-opacity="0.11"/>
<path d="M662.476 0V774" stroke="#878787" stroke-opacity="0.11"/>
<path d="M796.551 0V774" stroke="#878787" stroke-opacity="0.11"/>
<path d="M930.623 0V774" stroke="#878787" stroke-opacity="0.11"/>
<path d="M1064.7 0V774" stroke="#878787" stroke-opacity="0.11"/>
<path d="M1183 694.021H7.7486e-06" stroke="#878787" stroke-opacity="0.11"/>
<path d="M1183 606.3H7.7486e-06" stroke="#878787" stroke-opacity="0.11"/>
<path d="M1183 518.581H7.7486e-06" stroke="#878787" stroke-opacity="0.11"/>
<path d="M1183 430.861L7.7486e-06 430.861" stroke="#878787" stroke-opacity="0.11"/>
<path d="M1183 343.139L7.7486e-06 343.139" stroke="#878787" stroke-opacity="0.11"/>
<path d="M1183 255.42L7.7486e-06 255.42" stroke="#878787" stroke-opacity="0.11"/>
<path d="M1183 167.7L7.7486e-06 167.7" stroke="#878787" stroke-opacity="0.11"/>
<path d="M1183 79.9797L7.7486e-06 79.9797" stroke="#878787" stroke-opacity="0.11"/>
</svg>
